<?xml version="1.0" encoding="UTF-8"?>
<svg id="Layer_1" xmlns="http://www.w3.org/2000/svg" version="1.1" viewBox="0 0 401.994025 184.1053848">
  <!-- Generator: Adobe Illustrator 30.3.0, SVG Export Plug-In . SVG Version: 2.1.3 Build 182)  -->
  <defs>
    <style>
      .st0, .st1 {
        isolation: isolate;
      }

      .st0, .st2, .st3, .st4, .st5, .st6, .st7 {
        fill: none;
        stroke: #fff;
      }

      .st2 {
        stroke-dasharray: 0 10.0295706;
      }

      .st2, .st3, .st4, .st5, .st6 {
        stroke-linejoin: round;
        stroke-width: 2px;
      }

      .st2, .st3, .st4, .st6 {
        stroke-linecap: round;
      }

      .st8, .st9 {
        fill: #fff;
      }

      .st4 {
        stroke-dasharray: 0 10.0034256;
      }

      .st6 {
        stroke-dasharray: 0 9.9973507;
      }

      .st9 {
        font-family: IBMPlexMono-SemiBold, 'IBM Plex Mono';
        font-size: 10px;
        font-weight: 600;
        letter-spacing: .1em;
      }
    </style>
  </defs>
  <circle class="st7" cx="7" cy="147.1528019" r="6.5"/>
  <circle class="st8" cx="7" cy="147.1528019" r="3"/>
  <g>
    <line class="st3" x1="6.9998749" y1="147.1527898" x2="6.9998749" y2="147.1527898"/>
    <path class="st4" d="M16.2523163,143.3650701c30.2280273-11.3826294,132.1713867-42.2454224,270.9199219-4.5456848"/>
    <line class="st3" x1="291.993039" y1="140.1527898" x2="291.993039" y2="140.1527898"/>
  </g>
  <g>
    <line class="st3" x1="6.9998749" y1="147.1527898" x2="6.9998749" y2="147.1527898"/>
    <path class="st2" d="M14.8533906,140.9232976c28.2412109-21.0334778,130.5327148-85.8369904,272.324707-44.2201233"/>
    <line class="st3" x1="291.993039" y1="98.1527898" x2="291.993039" y2="98.1527898"/>
  </g>
  <g>
    <line class="st3" x1="6.9998749" y1="147.1527898" x2="6.9998749" y2="147.1527898"/>
    <path class="st6" d="M10.3397187,137.735523C25.0101288,100.4405706,91.9412812-32.8694117,287.1121796,9.0732763"/>
    <line class="st3" x1="291.993039" y1="10.1528051" x2="291.993039" y2="10.1528051"/>
  </g>
  <path class="st5" d="M7,147.1528019S104.6688037,1.000003,275.3120289,50.8676409"/>
  <circle class="st0" cx="291.9930709" cy="140.1528019" r="4"/>
  <circle class="st0" cx="291.9930709" cy="98.1528019" r="4"/>
  <circle class="st0" cx="291.9930709" cy="10.1528019" r="4"/>
  <g>
    <circle class="st7" cx="291.9930709" cy="54.1528019" r="17"/>
    <circle class="st8" cx="291.9930709" cy="54.1528019" r="5"/>
    <line class="st7" x1="291.9930709" y1="29.1528019" x2="291.9930709" y2="37.1528019"/>
    <line class="st7" x1="291.9930709" y1="71.1528019" x2="291.9930709" y2="79.1528019"/>
    <line class="st7" x1="266.9930709" y1="54.1528019" x2="274.9930709" y2="54.1528019"/>
    <line class="st7" x1="308.9930709" y1="54.1528019" x2="316.9930709" y2="54.1528019"/>
  </g>
  <g class="st1">
    <text class="st9" transform="translate(3.9995182 180.6056289)"><tspan x="0" y="0">CANDIDATE RUNS</tspan></text>
  </g>
  <g class="st1">
    <text class="st9" transform="translate(311.9951236 34.1510391)"><tspan x="0" y="0">AUTO-SELECTED</tspan></text>
  </g>
</svg>