<svg width="43" height="26" viewBox="0 0 43 26" fill="none" xmlns="http://www.w3.org/2000/svg">
<path fill-rule="evenodd" clip-rule="evenodd" d="M31.8729 12.3475C31.8187 12.2159 31.7862 12.0734 31.7862 11.9418V11.2071C31.7862 10.9 31.9054 10.7575 32.1114 10.7575C32.1982 10.7575 32.2849 10.7685 32.3717 10.8014C32.4584 10.8343 32.5885 10.8891 32.7295 10.9439C33.2174 11.1632 33.7487 11.3387 34.3016 11.4483C34.8763 11.569 35.4292 11.6238 36.0039 11.6238C36.9038 11.6238 37.6086 11.4593 38.0965 11.1413C38.5844 10.8233 38.8447 10.3627 38.8447 9.77056C38.8447 9.36483 38.7145 9.03585 38.4543 8.76171C38.1941 8.48756 37.7062 8.24631 37.0123 8.00506L34.9413 7.35808C33.9005 7.02911 33.1306 6.53564 32.6536 5.87769C32.1765 5.24167 31.938 4.52889 31.938 3.78321C31.938 3.18009 32.0681 2.64277 32.3283 2.18221C32.5885 1.72164 32.9246 1.3159 33.3583 0.997895C33.792 0.66892 34.2691 0.416703 34.8438 0.24125C35.4184 0.0657963 36.0148 0 36.6436 0C36.9581 0 37.2833 0.0109692 37.5978 0.0548325C37.923 0.0986958 38.2266 0.153518 38.5302 0.219313C38.8121 0.296074 39.0832 0.361877 39.3434 0.449603C39.6036 0.53733 39.7988 0.625046 39.9397 0.712772C40.1349 0.833397 40.2867 0.943057 40.3735 1.07465C40.4602 1.19527 40.5036 1.3488 40.5036 1.55715V2.23702C40.5036 2.54407 40.3843 2.6976 40.1783 2.6976C40.059 2.6976 39.8747 2.64277 39.6362 2.52215C38.823 2.14931 37.9013 1.96288 36.893 1.96288C36.0798 1.96288 35.4293 2.09448 34.9956 2.36862C34.551 2.64277 34.3233 3.05947 34.3233 3.65162C34.3233 4.05736 34.4643 4.40827 34.757 4.68242C35.0389 4.95656 35.5702 5.2307 36.3292 5.48292L38.3567 6.1299C39.3868 6.45887 40.1349 6.93041 40.5686 7.52256C41.0023 8.11472 41.23 8.79461 41.23 9.55125C41.23 10.1763 41.0999 10.7356 40.8614 11.229C40.6011 11.7225 40.265 12.1501 39.8205 12.501C39.3759 12.8629 38.8447 13.1261 38.2375 13.3125C37.5978 13.5099 36.9255 13.6196 36.1882 13.6196C35.4509 13.6196 34.7028 13.5318 33.9872 13.3564C33.2716 13.1809 32.7186 12.9945 32.3391 12.7752C32.1114 12.6436 31.9488 12.501 31.8946 12.3695L31.8729 12.3475ZM16.9428 12.4901C17.0295 12.7642 17.1271 12.9726 17.2464 13.0493C17.3656 13.148 17.5283 13.1919 17.7885 13.1919H19.0137C19.2739 13.1919 19.4691 13.148 19.5883 13.0493C19.7076 12.9506 19.7835 12.7642 19.8594 12.4681L22.0604 3.15817L24.2723 12.4901C24.3265 12.7752 24.4349 12.9726 24.5434 13.0713C24.6626 13.17 24.847 13.2138 25.118 13.2138H26.3432C26.5818 13.2138 26.7769 13.159 26.8854 13.0713C27.0046 12.9835 27.1022 12.7971 27.1889 12.512L30.6369 1.33783C30.6911 1.17335 30.7236 1.06369 30.7345 0.975959C30.7453 0.888232 30.767 0.81148 30.767 0.745685C30.767 0.504437 30.6369 0.383811 30.4092 0.383811H29.0755C28.8153 0.383811 28.631 0.438629 28.5226 0.526355C28.425 0.614082 28.3274 0.800512 28.2407 1.08562L25.7686 10.7794L23.5133 1.08562C23.4591 0.811478 23.3507 0.603116 23.2423 0.526355C23.123 0.427663 22.9387 0.383811 22.6676 0.383811H21.5292C21.2689 0.383811 21.0738 0.438629 20.9545 0.526355C20.8352 0.614082 20.7593 0.800512 20.6834 1.08562L18.4499 10.6588L16.0428 1.08562C15.9561 0.811478 15.8693 0.603116 15.7609 0.526355C15.6633 0.427663 15.479 0.383811 15.208 0.383811H13.8093C13.5816 0.383811 13.4623 0.515403 13.4623 0.745685C13.4623 0.844378 13.5057 1.0308 13.5924 1.32687L16.9536 12.501L16.9428 12.4901ZM9.74334 6.04217V4.98946C9.74334 3.89287 9.51563 3.12527 9.07109 2.67567C8.61571 2.22607 7.84589 2.00675 6.73996 2.00675C6.2412 2.00675 5.72076 2.06158 5.20032 2.19317C4.67988 2.32476 4.15944 2.47828 3.66069 2.68663C3.43299 2.78532 3.25951 2.85111 3.16192 2.87304C3.06434 2.90594 2.98844 2.91692 2.93422 2.91692C2.73906 2.91692 2.63063 2.77436 2.63063 2.46731V1.75454C2.63063 1.52426 2.66317 1.3488 2.72823 1.2501C2.80413 1.15141 2.92339 1.05272 3.1294 0.943062C3.62815 0.679882 4.23534 0.46057 4.92926 0.296082C5.63402 0.109663 6.37131 0.0219364 7.16281 0.0219364C8.86509 0.0219364 10.112 0.416698 10.9035 1.19527C11.695 1.97385 12.0853 3.15816 12.0853 4.74821V9.43062H12.1178C12.1178 9.96795 12.1721 10.3956 12.2805 10.7136C12.3998 11.0316 12.5407 11.3825 12.7359 11.7554C12.8118 11.876 12.8334 11.9857 12.8334 12.0844C12.8334 12.2269 12.7467 12.3695 12.5624 12.523L11.6625 13.1261C11.5323 13.2138 11.4022 13.2577 11.2938 13.2577C11.1529 13.2577 11.0119 13.1809 10.8601 13.0603C10.665 12.841 10.4915 12.6107 10.3505 12.3804C10.2096 12.1392 10.0686 11.865 9.90597 11.5251C8.78919 12.852 7.3905 13.5209 5.69907 13.5209C4.49555 13.5209 3.54141 13.17 2.83664 12.4791C2.13188 11.7883 1.77408 10.8562 1.77408 9.70477C1.77408 8.4766 2.20778 7.4787 3.07518 6.72206C3.94258 5.96542 5.10273 5.59258 6.57731 5.59258C7.06522 5.59258 7.56399 5.63645 8.09527 5.71321C8.62655 5.78997 9.16869 5.89962 9.74334 6.03121V6.04217ZM8.45308 7.42387C7.99769 7.36904 7.55314 7.33615 7.1086 7.33615C6.15446 7.33615 5.4497 7.52256 4.98347 7.91733C4.5064 8.3121 4.2787 8.8604 4.2787 9.58414C4.2787 10.264 4.45219 10.7684 4.80999 11.1194C5.15695 11.4812 5.65569 11.6567 6.30625 11.6567C6.78332 11.6567 7.26039 11.569 7.78083 11.3935C8.29043 11.218 8.75666 10.9 9.13614 10.4724C9.36384 10.1982 9.53733 9.89119 9.62407 9.55125C9.71081 9.21131 9.76501 8.78363 9.76501 8.29017V7.68704C9.353 7.58835 8.90846 7.50062 8.45308 7.44579V7.42387ZM38.1833 19.5192C32.903 21.7781 27.1781 22.8747 21.952 22.8747C14.2213 22.8747 6.73996 20.7254 0.678993 17.1615C0.14771 16.8435 -0.253477 17.3918 0.191067 17.7975C5.79665 22.9186 13.2129 26 21.4532 26C27.3299 26 34.1607 24.1358 38.8663 20.6158C39.6362 20.0346 38.9639 19.1573 38.1833 19.5192ZM42.8347 16.7997C42.3251 16.1636 37.9013 15.6153 35.2124 17.5234C34.8004 17.8304 34.8654 18.2362 35.3317 18.1704C36.8605 17.984 40.2325 17.5782 40.8397 18.3568C41.436 19.1244 40.1674 22.3484 39.5928 23.7849C39.4193 24.2235 39.7879 24.388 40.1783 24.059C42.6937 21.9207 43.3551 17.4466 42.8347 16.7997Z" fill="black"/>
</svg>
