<svg width="94" height="17" viewBox="0 0 94 17" fill="none" xmlns="http://www.w3.org/2000/svg">
<path d="M9.13166 8.35125C10.3243 7.91208 11.191 6.72917 11.191 5.27708C11.191 2.5075 9.11086 1.25375 5.80349 1.25375H0V15.7604H6.15712C9.56156 15.7604 11.4961 14.3933 11.4961 11.6096C11.4961 10.0371 10.4283 8.7975 9.13166 8.35833V8.35125ZM2.82202 3.80375L5.70642 3.78958C7.10703 3.78958 8.22335 4.07292 8.22335 5.47542C8.22335 6.87792 7.13476 7.1825 5.72029 7.1825H2.82202V3.80375ZM5.99765 13.2246L2.82202 13.2104V9.72541H5.99765C7.55772 9.72541 8.53537 10.0654 8.53537 11.4608C8.53537 12.8562 7.55772 13.2175 5.99765 13.2175V13.2246ZM15.5384 8.5C15.5523 11.4113 17.5214 13.2458 20.0245 13.2458C21.5984 13.2458 22.8742 12.5233 23.7271 11.2554L26.0429 12.9483C24.7949 14.8325 22.6454 16.0154 20.0453 16.0154C15.6701 16.0154 12.5846 12.8492 12.5846 8.49292C12.5708 4.13667 15.6563 0.970416 20.0314 0.970416C22.6454 0.970416 24.9613 2.19584 26.1192 4.22167L23.6924 5.7375C22.8881 4.48375 21.5984 3.74 20.0245 3.74C17.4452 3.74 15.5384 5.66667 15.5384 8.48583V8.5ZM40.9434 1.24667L35.6114 15.7533H32.1792L26.8334 1.23959H29.8426L33.9057 12.8137L37.9966 1.23959H40.9365L40.9434 1.24667ZM44.3964 0H44.6391V17H44.3964V0ZM82.178 14.025C82.3167 14.195 82.3861 14.4358 82.3861 14.7404C82.3861 15.0237 82.3098 15.2504 82.1503 15.4275C82.0047 15.5975 81.7967 15.7321 81.5263 15.8171C81.2628 15.895 80.9647 15.9375 80.6318 15.9375C80.3892 15.9375 80.1742 15.9021 79.9731 15.8312C79.779 15.7675 79.6057 15.6754 79.4531 15.5621C79.3144 15.4487 79.1896 15.3212 79.0856 15.1937C78.9886 15.0592 78.9123 14.9175 78.8637 14.7829C78.8152 14.6483 78.7875 14.5208 78.7875 14.4146H79.4393C79.4393 14.4146 79.4462 14.4783 79.4601 14.5775C79.4739 14.6767 79.5155 14.79 79.5849 14.9246C79.6542 15.0521 79.7721 15.1725 79.9315 15.2717C80.091 15.3637 80.3198 15.4133 80.618 15.4133C80.826 15.4133 81.0201 15.385 81.1865 15.3354C81.3529 15.2858 81.4847 15.2079 81.5748 15.0946C81.6719 14.9883 81.7204 14.8537 81.7135 14.6979C81.7135 14.4925 81.6442 14.3296 81.5055 14.2233C81.3737 14.11 81.1935 14.025 80.9785 13.9612C80.7636 13.8975 80.5348 13.8337 80.2921 13.7771C80.0563 13.7204 79.8275 13.6496 79.6057 13.5646C79.3838 13.4725 79.2104 13.345 79.0787 13.175C78.9469 13.0121 78.8846 12.7783 78.8915 12.4879C78.8984 12.1267 79.0579 11.8433 79.3699 11.6379C79.6889 11.4254 80.091 11.3121 80.5833 11.3121C80.7844 11.3121 80.9924 11.3404 81.2073 11.39C81.4223 11.4396 81.6234 11.5246 81.7967 11.6379C81.977 11.7442 82.1226 11.9 82.2266 12.0983C82.3306 12.2896 82.3791 12.5375 82.3653 12.835H81.7343C81.7343 12.6367 81.7066 12.4737 81.6303 12.3462C81.561 12.2187 81.4639 12.1196 81.3321 12.0558C81.2143 11.985 81.0825 11.9354 80.9439 11.9142C80.8121 11.8858 80.6804 11.8717 80.5625 11.8717C80.2574 11.8717 80.0078 11.9283 79.8137 12.0417C79.6265 12.155 79.5294 12.3179 79.5294 12.5304C79.5294 12.7217 79.5987 12.8775 79.7305 12.9837C79.8691 13.09 80.0494 13.175 80.2574 13.2458C80.4724 13.3025 80.7012 13.3592 80.9439 13.4158C81.1935 13.4654 81.4223 13.5362 81.6442 13.6283C81.866 13.7204 82.0394 13.855 82.1711 14.025H82.178ZM77.7197 12.3604C77.5533 12.0558 77.3245 11.8292 77.0333 11.6733C76.749 11.5104 76.4231 11.4254 76.0487 11.4254C75.6188 11.4254 75.2513 11.5246 74.9393 11.73C74.6342 11.9283 74.4054 12.2046 74.239 12.5517C74.0864 12.8917 74.0032 13.2671 74.0032 13.6708C74.0032 14.0462 74.0726 14.4075 74.2112 14.7617C74.3569 15.1087 74.5857 15.3921 74.8838 15.6117C75.1958 15.8242 75.5841 15.9375 76.0556 15.9375C76.4162 15.9375 76.7282 15.8737 77.0055 15.7462C77.2829 15.6117 77.5047 15.4204 77.6712 15.1867C77.8376 14.9458 77.9485 14.6837 77.997 14.3862H77.3314C77.2759 14.6837 77.1303 14.9175 76.8877 15.0875C76.6589 15.2575 76.3746 15.3496 76.0418 15.3496C75.598 15.3496 75.2513 15.2079 75.0086 14.9175C74.7729 14.62 74.6481 14.2233 74.6481 13.7062H78.004V13.5646C78.004 13.5079 78.004 13.4654 77.9901 13.4371C77.9693 13.0262 77.8722 12.6721 77.692 12.3675L77.7197 12.3604ZM74.6827 13.3237C74.7035 13.1679 74.7451 13.005 74.8006 12.8492C74.863 12.6933 74.9462 12.5517 75.0502 12.4312C75.1612 12.3037 75.2998 12.2046 75.4593 12.1267C75.6188 12.0487 75.8129 12.0062 76.0279 12.0062C76.2705 12.0062 76.4786 12.0558 76.638 12.1479C76.7975 12.24 76.9293 12.3604 77.0263 12.5021C77.1234 12.6367 77.1927 12.7854 77.2343 12.9342C77.2829 13.0758 77.3106 13.2104 77.3106 13.3237H74.6689H74.6827ZM73.4 11.4325H73.6011V12.1975H73.3931C73.0533 12.1975 72.7829 12.24 72.568 12.3179C72.36 12.3887 72.1935 12.495 72.0826 12.6437C71.9717 12.7783 71.8954 12.9483 71.8538 13.1396C71.8122 13.3308 71.7914 13.5433 71.7914 13.7771V15.8242H71.1188V11.4325H71.729L71.7983 12.5942C71.8191 12.5021 71.8469 12.41 71.8885 12.3108C71.9578 12.1479 72.0549 11.9992 72.1866 11.8717C72.3184 11.7371 72.4917 11.6237 72.6928 11.5458C72.8938 11.4679 73.1365 11.4254 73.4139 11.4254L73.4 11.4325ZM69.4131 11.4325H70.1134V15.8242H69.531L69.4131 14.8396H69.3923C69.3646 14.9317 69.3161 15.0379 69.2467 15.1654C69.1843 15.2858 69.0942 15.4062 68.9694 15.5196C68.8515 15.6329 68.699 15.7321 68.5187 15.81C68.3454 15.8879 68.1373 15.9304 67.8947 15.9304C67.6173 15.9304 67.3816 15.8879 67.1874 15.8029C67.0002 15.7179 66.8407 15.6046 66.709 15.4558C66.5911 15.3071 66.501 15.1371 66.4317 14.9458C66.3692 14.7546 66.3207 14.5492 66.293 14.3437C66.2722 14.1312 66.2583 13.9117 66.2583 13.6992V11.4325H66.9309V13.7062C66.9309 13.9967 66.9586 14.2587 67.0141 14.5067C67.0765 14.7546 67.1944 14.9458 67.3608 15.0875C67.5272 15.2292 67.7768 15.3 68.1096 15.3C68.4424 15.3 68.6712 15.2221 68.8515 15.0733C69.0318 14.9246 69.1705 14.7333 69.2537 14.4996C69.3369 14.2587 69.3854 14.0108 69.3993 13.7558V11.4254L69.4131 11.4325ZM64.414 15.2646H65.4193V15.8242H64.4556C64.199 15.8242 64.0257 15.7533 63.9147 15.6117C63.8107 15.47 63.7552 15.2717 63.7552 15.0167V11.9496H63.0827V11.4325C63.2491 11.4325 63.3878 11.4254 63.4848 11.4112C63.5888 11.39 63.6651 11.3475 63.7136 11.2837C63.7622 11.2129 63.7969 11.0996 63.8107 10.9367C63.8246 10.7808 63.8315 10.5683 63.8315 10.2992H64.414V11.4325H65.4055V11.9496H64.414V15.2646ZM62.5003 13.0617C62.5211 13.26 62.5349 13.4583 62.5349 13.6567V15.8242H61.8832V13.6567C61.8832 13.3379 61.8485 13.0617 61.7792 12.8279C61.7167 12.58 61.5989 12.3958 61.4325 12.2683C61.2661 12.1338 61.0234 12.0629 60.7114 12.0629C60.3993 12.0629 60.1359 12.1408 59.9417 12.3037C59.7476 12.4525 59.602 12.6579 59.5118 12.92C59.4217 13.175 59.3732 13.4512 59.3732 13.7487V15.8312H58.6729V11.4396H59.2553L59.3732 12.5304H59.394C59.4078 12.495 59.4425 12.4171 59.491 12.3037C59.5465 12.1833 59.6297 12.0558 59.7476 11.9283C59.8585 11.8008 60.0111 11.6875 60.1983 11.5954C60.3924 11.4962 60.642 11.4467 60.9402 11.4467C61.2383 11.4467 61.481 11.4962 61.6821 11.5883C61.8762 11.6733 62.0357 11.7937 62.1466 11.9567C62.2645 12.1054 62.3547 12.2825 62.4101 12.4737C62.4656 12.665 62.5003 12.8704 62.5141 13.0758L62.5003 13.0617ZM57.5011 12.3604C57.3347 12.0558 57.1058 11.8292 56.8146 11.6733C56.5303 11.5104 56.2045 11.4254 55.83 11.4254C55.4002 11.4254 55.0327 11.5246 54.7207 11.73C54.4156 11.9283 54.1868 12.2046 54.0204 12.5517C53.8678 12.8917 53.7846 13.2671 53.7846 13.6708C53.7846 14.0462 53.8539 14.4075 53.9926 14.7617C54.1382 15.1087 54.367 15.3921 54.6652 15.6117C54.9772 15.8242 55.3655 15.9375 55.837 15.9375C56.1975 15.9375 56.5096 15.8737 56.7869 15.7462C57.0642 15.6117 57.2861 15.4204 57.4525 15.1867C57.6189 14.9458 57.7299 14.6837 57.7784 14.3862H57.1128C57.0573 14.6837 56.9117 14.9175 56.669 15.0875C56.4333 15.2575 56.1559 15.3496 55.8231 15.3496C55.3794 15.3496 55.0327 15.2079 54.79 14.9175C54.5473 14.62 54.4294 14.2233 54.4294 13.7062H57.7853V13.5646C57.7853 13.5079 57.7854 13.4654 57.7715 13.4371C57.7507 13.0262 57.6536 12.6721 57.4733 12.3675L57.5011 12.3604ZM54.471 13.3237C54.4918 13.1679 54.5334 13.005 54.5889 12.8492C54.6513 12.6933 54.7345 12.5517 54.8455 12.4312C54.9564 12.3037 55.0951 12.2046 55.2546 12.1267C55.414 12.0487 55.6082 12.0062 55.8231 12.0062C56.0727 12.0062 56.2738 12.0558 56.4333 12.1479C56.5928 12.24 56.7245 12.3604 56.8216 12.5021C56.9186 12.6367 56.988 12.7854 57.0296 12.9342C57.0781 13.0758 57.1058 13.2104 57.1058 13.3237H54.4641H54.471ZM53.0496 9.75375H53.7915L51.6906 15.8242H50.5535L48.4595 9.75375H49.2014L51.1221 15.5054L53.0566 9.75375H53.0496ZM94 1.25375V7.32417H93.3344V1.25375H94ZM91.698 3.86042H91.6841C91.6425 3.76125 91.5801 3.655 91.4969 3.54875C91.4207 3.43541 91.3236 3.32917 91.1988 3.22292C91.0809 3.12375 90.9353 3.04583 90.7689 2.98208C90.6094 2.91833 90.4153 2.88292 90.1865 2.88292C89.8051 2.88292 89.4862 2.98209 89.2227 3.1875C88.9661 3.37875 88.7789 3.64792 88.6541 3.98792C88.5293 4.32792 88.4669 4.7175 88.4669 5.16375C88.4669 5.61 88.5293 5.97833 88.6472 6.31833C88.772 6.65833 88.9661 6.9275 89.2158 7.12583C89.4723 7.31708 89.7912 7.41625 90.1865 7.41625C90.4083 7.41625 90.5956 7.38792 90.755 7.33125C90.9214 7.27458 91.067 7.19667 91.1849 7.10458C91.3097 7.0125 91.4137 6.91333 91.49 6.8C91.5663 6.68667 91.6287 6.57333 91.6772 6.46708H91.698L91.802 7.31708H92.3844V2.92542H91.6841V3.85333L91.698 3.86042ZM91.5593 6.04208C91.4761 6.29 91.3375 6.47417 91.1572 6.61583C90.9838 6.74333 90.7412 6.80708 90.45 6.80708C90.1587 6.80708 89.8952 6.73625 89.7011 6.60167C89.5139 6.46 89.3683 6.26167 89.2782 6.02083C89.195 5.76583 89.1534 5.4825 89.1534 5.17083C89.1534 4.85917 89.195 4.58292 89.2782 4.34208C89.3614 4.09417 89.5 3.90292 89.6872 3.76125C89.8814 3.61958 90.1379 3.54875 90.45 3.54875C90.7342 3.54875 90.963 3.6125 91.1502 3.74C91.3374 3.86042 91.4692 4.04458 91.5524 4.2925C91.6425 4.54042 91.6911 4.83792 91.6911 5.185C91.6911 5.51792 91.6495 5.80125 91.5663 6.04916L91.5593 6.04208ZM86.7959 6.76458H87.8013V7.32417H86.8375C86.5809 7.32417 86.4076 7.25333 86.2967 7.11166C86.1927 6.97 86.1372 6.77167 86.1372 6.51667V3.44958H85.4646V2.9325C85.631 2.9325 85.7697 2.92541 85.8668 2.91125C85.9708 2.89 86.047 2.8475 86.1025 2.78375C86.1511 2.71291 86.1857 2.59958 86.1996 2.43667C86.2135 2.28083 86.2204 2.06833 86.2204 1.79916H86.8028V2.9325H87.7943V3.44958H86.8028V6.76458H86.7959ZM84.7158 1.50875C84.7712 1.59375 84.799 1.69292 84.799 1.81333C84.799 1.93375 84.7712 2.04 84.7158 2.13917C84.6603 2.23125 84.5424 2.28083 84.3691 2.28083C84.1958 2.28083 84.071 2.23125 84.0086 2.13917C83.9461 2.04708 83.9115 1.94083 83.9115 1.81333C83.9115 1.7 83.9461 1.60083 84.0086 1.50875C84.071 1.41667 84.1888 1.36708 84.3691 1.36708C84.5494 1.36708 84.6603 1.41667 84.7158 1.50875ZM84.0224 2.9325H84.7089V7.32417H84.0224V2.9325ZM82.3029 3.23C82.0186 3.03875 81.6719 2.93958 81.2559 2.93958C80.9647 2.93958 80.722 2.98916 80.5278 3.08833C80.3406 3.18041 80.1812 3.29375 80.0633 3.43542C79.9523 3.57 79.8691 3.6975 79.8137 3.81083C79.7582 3.92417 79.7235 4.00208 79.7097 4.0375H79.6889L79.571 2.93958H78.9886V9.14458H79.6889V6.36083H79.7097C79.7235 6.39625 79.7582 6.47416 79.8137 6.5875C79.8761 6.70083 79.9662 6.82833 80.091 6.95583C80.2158 7.08333 80.3753 7.20375 80.5625 7.30292C80.7497 7.395 80.9855 7.44458 81.2628 7.44458C81.6719 7.44458 82.0186 7.3525 82.2959 7.16125C82.5802 6.97 82.7882 6.70083 82.9269 6.36083C83.0725 6.02083 83.1488 5.63833 83.1488 5.20625C83.1488 4.77417 83.0794 4.3775 82.9408 4.04458C82.8021 3.6975 82.5871 3.42834 82.3098 3.23709L82.3029 3.23ZM82.3445 5.97833C82.2613 6.22625 82.1157 6.42458 81.9076 6.58041C81.7135 6.73625 81.45 6.82125 81.1172 6.82125C80.8329 6.82125 80.5833 6.7575 80.3684 6.63C80.1604 6.5025 79.9939 6.31125 79.8691 6.07042C79.7582 5.81542 79.7027 5.525 79.7027 5.19917C79.7027 4.87333 79.7582 4.58292 79.8622 4.335C79.9731 4.08708 80.1326 3.90291 80.3406 3.77541C80.5417 3.64791 80.7844 3.58417 81.0548 3.58417C81.3945 3.58417 81.665 3.66208 81.866 3.825C82.0741 3.97375 82.2335 4.17208 82.3306 4.42C82.4277 4.66792 82.4762 4.93 82.4762 5.20625C82.4762 5.4825 82.4277 5.74458 82.3375 5.9925L82.3445 5.97833ZM77.373 3.86042H77.3661C77.3245 3.76125 77.2621 3.655 77.1789 3.54875C77.1026 3.43541 77.0055 3.32917 76.8807 3.22292C76.7628 3.12375 76.6172 3.04583 76.4508 2.98208C76.2914 2.91833 76.0972 2.88292 75.8684 2.88292C75.4871 2.88292 75.1681 2.98209 74.9046 3.1875C74.655 3.37875 74.4609 3.64792 74.336 3.98792C74.2112 4.32792 74.1488 4.7175 74.1488 5.16375C74.1488 5.61 74.2113 5.97833 74.3291 6.31833C74.4539 6.65833 74.6481 6.9275 74.8977 7.12583C75.1473 7.31708 75.4732 7.41625 75.8684 7.41625C76.0903 7.41625 76.2775 7.38792 76.437 7.33125C76.6034 7.27458 76.749 7.19667 76.8669 7.10458C76.9917 7.0125 77.0957 6.91333 77.1719 6.8C77.2482 6.68667 77.3106 6.57333 77.3591 6.46708H77.3799L77.4839 7.31708H78.0664V2.92542H77.3661V3.85333L77.373 3.86042ZM77.2343 6.04208C77.1511 6.29 77.0125 6.47417 76.8322 6.61583C76.6588 6.74333 76.4231 6.80708 76.125 6.80708C75.8268 6.80708 75.5702 6.73625 75.3761 6.60167C75.1889 6.46 75.0433 6.26167 74.9532 6.02083C74.87 5.76583 74.8284 5.4825 74.8284 5.17083C74.8284 4.85917 74.87 4.58292 74.9532 4.34208C75.0364 4.10125 75.175 3.90292 75.3622 3.76125C75.5633 3.61958 75.8129 3.54875 76.125 3.54875C76.4092 3.54875 76.638 3.6125 76.8252 3.74C77.0055 3.86042 77.1442 4.04458 77.2274 4.2925C77.3175 4.54042 77.3661 4.83792 77.3661 5.185C77.3661 5.51792 77.3245 5.80125 77.2413 6.04916L77.2343 6.04208ZM72.1727 7.16125C71.7914 7.33833 71.3407 7.43042 70.8207 7.43042C70.3007 7.43042 69.7876 7.31708 69.3438 7.08333C68.907 6.8425 68.5603 6.49541 68.2968 6.02791C68.0403 5.56041 67.9224 4.98667 67.9293 4.29958C67.9293 3.60542 68.0541 3.0175 68.2968 2.55C68.5534 2.0825 68.9001 1.72833 69.3438 1.49458C69.7876 1.25375 70.2937 1.14041 70.8623 1.14041C71.3476 1.14041 71.7775 1.2325 72.1519 1.40958C72.5264 1.58667 72.8245 1.84875 73.0603 2.18875C73.3029 2.52167 73.4624 2.91833 73.5456 3.38583H72.8384C72.776 3.0175 72.6512 2.72 72.457 2.49333C72.2698 2.2525 72.0341 2.0825 71.7567 1.96208C71.4794 1.84875 71.1812 1.79208 70.8623 1.79208C70.1551 1.79208 69.6073 2.00458 69.2051 2.42958C68.803 2.85458 68.6019 3.46375 68.6019 4.26417C68.6019 5.06458 68.796 5.72333 69.1913 6.15541C69.5865 6.58041 70.1342 6.79292 70.8276 6.79292C71.1812 6.79292 71.4932 6.73625 71.7775 6.62292C72.0687 6.5025 72.3045 6.31833 72.4986 6.08458C72.6928 5.85083 72.8106 5.55333 72.8661 5.19917H73.5872C73.511 5.65958 73.3515 6.05625 73.1088 6.39625C72.873 6.72917 72.5541 6.98417 72.1727 7.17542V7.16125ZM63.5958 3.76834C63.4294 3.63375 63.1867 3.56292 62.8747 3.56292C62.5627 3.56292 62.2992 3.64083 62.105 3.80375C61.9109 3.9525 61.7653 4.15792 61.6751 4.42C61.585 4.675 61.5365 4.95125 61.5365 5.24875V7.33125H60.8362V2.93958H61.4186L61.5365 4.03041H61.5573C61.5711 3.995 61.6058 3.91708 61.6543 3.80375C61.7098 3.68333 61.793 3.55583 61.9109 3.42833C62.0218 3.30083 62.1744 3.1875 62.3616 3.09542C62.5557 2.99625 62.8053 2.94667 63.1035 2.94667C63.4016 2.94667 63.6443 2.99625 63.8454 3.08833C64.0395 3.17333 64.199 3.29375 64.3099 3.45667C64.4278 3.60542 64.518 3.7825 64.5734 3.97375C64.6289 4.165 64.6636 4.37042 64.6774 4.57583C64.6982 4.77417 64.7121 4.9725 64.7121 5.17083V7.33833H64.0603V5.17083C64.0603 4.85208 64.0257 4.57583 63.9563 4.34208C63.8939 4.09417 63.7761 3.91 63.6096 3.7825L63.5958 3.76834ZM59.1929 2.13917C59.1305 2.04708 59.0958 1.94083 59.0958 1.81333C59.0958 1.7 59.1305 1.60083 59.1929 1.50875C59.2553 1.41667 59.3732 1.36708 59.5534 1.36708C59.7337 1.36708 59.8446 1.41667 59.9001 1.50875C59.9556 1.59375 59.9833 1.69292 59.9833 1.81333C59.9833 1.93375 59.9556 2.04 59.9001 2.13917C59.8446 2.23125 59.7268 2.28083 59.5534 2.28083C59.3801 2.28083 59.2553 2.23125 59.1929 2.13917ZM59.2068 2.9325H59.8932V7.32417H59.2068V2.9325ZM57.5704 3.86042H57.5565C57.5149 3.76125 57.4525 3.655 57.3693 3.54875C57.2931 3.43541 57.196 3.32917 57.0712 3.22292C56.9464 3.11667 56.8077 3.04583 56.6413 2.98208C56.4818 2.91833 56.2877 2.88292 56.0589 2.88292C55.6775 2.88292 55.3586 2.98209 55.0951 3.1875C54.8385 3.37875 54.6513 3.64792 54.5265 3.98792C54.4017 4.32792 54.3393 4.7175 54.3393 5.16375C54.3393 5.61 54.4017 5.97833 54.5196 6.31833C54.6444 6.65833 54.8385 6.9275 55.0881 7.12583C55.3447 7.31708 55.6636 7.41625 56.0589 7.41625C56.2738 7.41625 56.4679 7.38792 56.6274 7.33125C56.7938 7.27458 56.9394 7.19667 57.0573 7.10458C57.1821 7.0125 57.2861 6.91333 57.3624 6.8C57.4387 6.68667 57.5011 6.57333 57.5496 6.46708H57.5704L57.6744 7.31708H58.2568V2.92542H57.5565V3.85333L57.5704 3.86042ZM57.4317 6.04208C57.3485 6.29 57.2168 6.47417 57.0296 6.61583C56.8562 6.74333 56.6205 6.80708 56.3223 6.80708C56.0242 6.80708 55.7676 6.73625 55.5735 6.60167C55.3863 6.46 55.2407 6.26167 55.1506 6.02083C55.0673 5.76583 55.0257 5.4825 55.0257 5.17083C55.0257 4.85917 55.0673 4.58292 55.1506 4.34208C55.2338 4.09417 55.3724 3.90292 55.5596 3.76125C55.7538 3.61958 56.0103 3.54875 56.3223 3.54875C56.6066 3.54875 56.8354 3.6125 57.0226 3.74C57.2029 3.86042 57.3416 4.04458 57.4248 4.2925C57.5149 4.54042 57.5635 4.83792 57.5635 5.185C57.5635 5.51792 57.5219 5.80125 57.4387 6.04916L57.4317 6.04208ZM52.0165 7.29583C52.2523 7.27458 52.4672 7.23208 52.6683 7.17542C52.8763 7.11875 53.0635 7.03375 53.2299 6.91333C53.3963 6.8 53.535 6.64416 53.6321 6.45291C53.7291 6.26166 53.7777 6.02083 53.7777 5.73042C53.7777 5.44 53.7222 5.20625 53.6182 4.98666C53.5211 4.76708 53.3339 4.58292 53.0704 4.44833C52.8 4.30667 52.4187 4.23583 51.9194 4.23583V4.19333C52.3493 4.17917 52.6752 4.11541 52.904 4.00208C53.1398 3.88166 53.2923 3.71875 53.3825 3.51333C53.4726 3.315 53.5211 3.09542 53.5211 2.86875C53.5211 2.57833 53.4726 2.34458 53.3825 2.15333C53.2993 1.96208 53.1814 1.80625 53.0219 1.69292C52.8694 1.5725 52.6891 1.48042 52.4949 1.42375C52.3077 1.36 52.0997 1.3175 51.8848 1.29625C51.6768 1.275 51.4688 1.26083 51.2608 1.26083H49.1182V7.33125H51.3786C51.5797 7.33125 51.7946 7.31708 52.0235 7.29583H52.0165ZM49.7908 1.84875H51.1983C51.4896 1.84875 51.753 1.87 52.0027 1.9125C52.2592 1.94792 52.4533 2.04 52.6059 2.19583C52.7584 2.34458 52.8347 2.5925 52.8347 2.9325C52.8347 3.23 52.7654 3.44959 52.6267 3.59125C52.488 3.73292 52.3008 3.81792 52.0581 3.86042C51.8085 3.90292 51.5242 3.92416 51.1914 3.92416H49.7977V1.85583L49.7908 1.84875ZM49.7908 6.74333V4.47667H51.2053C51.552 4.47667 51.864 4.505 52.1483 4.56166C52.4325 4.61833 52.6544 4.73167 52.8208 4.89458C52.9872 5.0575 53.0774 5.3125 53.0774 5.6525C53.0774 5.9925 52.9942 6.21917 52.8347 6.375C52.6821 6.52375 52.4672 6.63 52.2037 6.67958C51.9403 6.72208 51.649 6.74333 51.3301 6.74333H49.7977H49.7908Z" fill="white"/>
</svg>
