<svg width="144" height="18" viewBox="0 0 144 18" fill="none" xmlns="http://www.w3.org/2000/svg">
<path d="M6.77132 14.0023C5.5087 13.992 4.36826 13.6743 3.32966 13.0592C2.30123 12.4339 1.48664 11.6036 0.885872 10.5376C0.295291 9.48178 0 8.31321 0 7.05239C0 5.79157 0.295291 4.60251 0.885872 3.55695C1.47645 2.51139 2.29105 1.69134 3.32966 1.09681C4.36826 0.492027 5.51888 0.194761 6.79168 0.194761C7.77938 0.194761 8.68562 0.35877 9.5104 0.697039C10.3352 1.02506 11.0378 1.53759 11.6182 2.22437L10.2843 3.6287C9.76495 3.09567 9.23547 2.70615 8.68562 2.48064C8.14595 2.24487 7.51464 2.13212 6.81205 2.13212C5.91599 2.13212 5.11158 2.33713 4.38863 2.7369C3.66568 3.14693 3.09546 3.72096 2.67798 4.4795C2.2605 5.22779 2.05685 6.09909 2.05685 7.09339C2.05685 8.0877 2.2605 8.91799 2.67798 9.68679C3.09546 10.4453 3.66568 11.0296 4.37845 11.4601C5.1014 11.8804 5.90581 12.0957 6.81205 12.0957C7.61646 12.0957 8.32923 11.9522 8.96054 11.6754C9.59185 11.3884 10.1112 10.9579 10.4981 10.3838C10.885 9.8098 11.1192 9.11276 11.2007 8.30296H6.74077V6.39636H13.1048C13.1659 6.80638 13.1964 7.1754 13.1964 7.50342C13.1964 8.79499 12.9317 9.94305 12.4022 10.9374C11.8727 11.9317 11.1192 12.6902 10.1417 13.2335C9.17437 13.7768 8.04412 14.0433 6.7815 14.0228L6.77132 14.0023ZM19.0921 14.0023C18.1553 14.0023 17.3 13.787 16.5566 13.3462C15.8133 12.9055 15.2227 12.3109 14.8053 11.5421C14.3878 10.7733 14.1841 9.9123 14.1841 8.94875C14.1841 7.98519 14.398 7.09339 14.8256 6.33485C15.2635 5.57631 15.8439 4.98178 16.5974 4.5615C17.3509 4.14123 18.1756 3.93622 19.1022 3.93622C20.0289 3.93622 20.874 4.15148 21.6275 4.57175C22.381 4.99203 22.9716 5.58656 23.3992 6.35535C23.8269 7.12415 24.0407 7.98519 24.0407 8.94875C24.0407 9.9123 23.8269 10.7733 23.4094 11.5421C22.9919 12.3109 22.4014 12.9157 21.6479 13.3462C20.9045 13.7768 20.0594 13.992 19.1124 13.992L19.0921 14.0023ZM19.0921 12.2494C19.6725 12.2494 20.1816 12.1059 20.6296 11.8189C21.0776 11.5216 21.434 11.1321 21.6784 10.6298C21.933 10.1276 22.0552 9.57403 22.0552 8.959C22.0552 8.34396 21.933 7.81093 21.6784 7.31891C21.434 6.81663 21.0878 6.42711 20.6296 6.14009C20.1714 5.85307 19.6623 5.70957 19.0921 5.70957C18.5524 5.70957 18.0636 5.84282 17.6054 6.12984C17.1574 6.40661 16.7908 6.79613 16.5261 7.28815C16.2613 7.78018 16.129 8.34396 16.129 8.96925C16.129 9.59453 16.2512 10.1276 16.4955 10.6298C16.7501 11.1321 17.0963 11.5216 17.5443 11.8189C17.9924 12.1162 18.5117 12.2597 19.0921 12.2597V12.2494ZM29.7429 14.0023C28.8061 14.0023 27.961 13.787 27.2075 13.3462C26.4641 12.9055 25.8736 12.3109 25.4561 11.5421C25.0386 10.7733 24.835 9.9123 24.835 8.94875C24.835 7.98519 25.0488 7.09339 25.4765 6.33485C25.9143 5.57631 26.5049 4.98178 27.2482 4.5615C27.9915 4.14123 28.8265 3.93622 29.7531 3.93622C30.6797 3.93622 31.5248 4.15148 32.2783 4.57175C33.0318 4.99203 33.6224 5.58656 34.0501 6.35535C34.4777 7.1139 34.6916 7.98519 34.6916 8.94875C34.6916 9.9123 34.4777 10.7733 34.0602 11.5421C33.6428 12.3109 33.0522 12.9157 32.2987 13.3462C31.5554 13.7768 30.7102 13.992 29.7633 13.992L29.7429 14.0023ZM29.7429 12.2494C30.3233 12.2494 30.8324 12.1059 31.2804 11.8189C31.7285 11.5216 32.0849 11.1321 32.3292 10.6298C32.5838 10.1276 32.706 9.57403 32.706 8.959C32.706 8.34396 32.5838 7.81093 32.3292 7.31891C32.0849 6.81663 31.7387 6.42711 31.2804 6.14009C30.8222 5.85307 30.3131 5.70957 29.7429 5.70957C29.2032 5.70957 28.7145 5.84282 28.2563 6.12984C27.8082 6.40661 27.4417 6.79613 27.1769 7.28815C26.9122 7.78018 26.7798 8.34396 26.7798 8.96925C26.7798 9.59453 26.902 10.1276 27.1464 10.6298C27.4009 11.1321 27.7471 11.5216 28.1952 11.8189C28.6432 12.1162 29.1625 12.2597 29.7429 12.2597V12.2494ZM40.129 17.9795C39.0802 17.9795 38.2147 17.754 37.5223 17.3132C36.8401 16.8724 36.28 16.1651 35.832 15.2016L37.5528 14.4328C37.8379 14.9761 38.1841 15.4066 38.6016 15.7141C39.0089 16.0319 39.5079 16.1856 40.1086 16.1856C41.0149 16.1856 41.6971 15.9191 42.1655 15.3964C42.644 14.8633 42.8782 14.1253 42.8782 13.1822V12.3212H42.8171C42.6746 12.5467 42.4608 12.762 42.196 12.9977C41.9313 13.2232 41.5952 13.4077 41.2083 13.5718C40.8214 13.7255 40.3937 13.8075 39.9253 13.8075C38.9987 13.8075 38.2045 13.6025 37.5223 13.1925C36.8401 12.7825 36.3208 12.2084 35.9644 11.4806C35.608 10.7426 35.4247 9.90205 35.4247 8.94875C35.4247 7.99544 35.608 7.16515 35.9644 6.41686C36.3208 5.66856 36.8401 5.08428 37.5019 4.65376C38.174 4.23349 38.958 4.01822 39.8439 4.01822C40.4752 4.01822 41.0658 4.14123 41.5953 4.39749C42.1247 4.65376 42.5422 5.01253 42.8375 5.4738H42.8782V4.30524H44.7824V12.6287C44.7824 16.2062 43.2346 18 40.129 18V17.9795ZM40.129 11.9727C40.689 11.9727 41.1778 11.8394 41.5953 11.5729C42.0127 11.3064 42.3284 10.9374 42.5524 10.4761C42.7764 10.0046 42.8782 9.46128 42.8782 8.86674C42.8782 8.27221 42.7662 7.71868 42.5524 7.24715C42.3284 6.77563 42.0127 6.41686 41.5953 6.17084C41.1778 5.91458 40.689 5.79157 40.1392 5.79157C39.5893 5.79157 39.1107 5.92483 38.7034 6.18109C38.286 6.43736 37.9601 6.79613 37.7361 7.2574C37.5019 7.72893 37.3899 8.26196 37.3899 8.86674C37.3899 9.50228 37.5019 10.0558 37.7361 10.5273C37.9703 10.9989 38.3063 11.3474 38.7136 11.5934C39.1311 11.8394 39.5995 11.9624 40.1392 11.9624L40.129 11.9727ZM46.2588 13.6948V0.492027H48.2546V13.705H46.2588V13.6948ZM54.1604 13.9818C52.7552 13.9818 51.5944 13.5308 50.6678 12.6185C49.7514 11.7061 49.2932 10.5068 49.2932 9.0205C49.2932 7.53417 49.731 6.3656 50.6169 5.42255C51.5129 4.4795 52.6737 3.99772 54.1095 3.99772C55.0463 3.99772 55.8608 4.24374 56.5431 4.72551C57.2355 5.20729 57.7751 5.97608 58.1723 7.00114C58.213 7.10364 58.2435 7.2164 58.2741 7.31891C58.3046 7.42141 58.3352 7.55467 58.3555 7.69818L50.8409 10.9066L50.3216 9.37927L56.5431 6.72437L56.37 7.56492C56.1358 6.90888 55.8099 6.42711 55.4026 6.14009C54.9953 5.84282 54.5371 5.69932 54.0382 5.69932C53.1829 5.69932 52.5006 5.99658 51.9915 6.58087C51.4824 7.16515 51.2278 7.93394 51.2278 8.88724C51.2278 9.78929 51.5231 10.5478 52.1035 11.1834C52.6839 11.8189 53.3967 12.1367 54.2418 12.1367C54.7408 12.1367 55.2092 12.0137 55.647 11.7574C56.0849 11.5011 56.4616 11.1526 56.7874 10.6913L58.2741 11.6651C57.8566 12.3519 57.2864 12.9157 56.5736 13.336C55.8507 13.7563 55.0462 13.9613 54.1604 13.9613V13.9818ZM63.3348 13.6948V0.492027H67.4994C69.4951 0.492027 71.1039 1.09681 72.3157 2.29613C73.5375 3.50569 74.1485 5.09453 74.1485 7.07289C74.1485 9.05125 73.5375 10.6708 72.3258 11.8804C71.1141 13.09 69.4951 13.6948 67.4994 13.6948H63.3348ZM65.3305 11.8394H67.4484C68.9045 11.8394 70.045 11.4294 70.8799 10.5888C71.7149 9.74829 72.1324 8.56948 72.1324 7.07289C72.1324 5.57631 71.7149 4.4385 70.8799 3.6082C70.045 2.7779 68.9045 2.36788 67.4484 2.36788H65.3305V11.8292V11.8394ZM79.8405 14.0023C78.4251 14.0023 77.2847 13.5308 76.3988 12.5979C75.5231 11.6549 75.0751 10.4556 75.0751 8.9795C75.0751 7.50342 75.5129 6.3246 76.3886 5.38155C77.2643 4.4385 78.3946 3.95672 79.7794 3.95672C81.1642 3.95672 82.2028 4.39749 83.0378 5.28929C83.8829 6.18109 84.3004 7.34966 84.3004 8.78474C84.3004 8.91799 84.3004 9.03075 84.28 9.11276C84.28 9.19476 84.2597 9.30752 84.2393 9.46128H76.1239V7.89294H82.3046C82.2333 7.24715 81.9788 6.70387 81.5308 6.27335C81.0929 5.84282 80.5023 5.62756 79.759 5.62756C78.9546 5.62756 78.2927 5.92483 77.7836 6.50911C77.2847 7.10364 77.0301 7.90319 77.0301 8.90774C77.0301 9.9123 77.3152 10.7836 77.8753 11.4089C78.4353 12.0239 79.1481 12.3314 80.0238 12.3314C80.594 12.3314 81.0929 12.2084 81.5206 11.9624C81.9482 11.7062 82.3454 11.3064 82.7017 10.7528L84.0764 11.6549C83.6283 12.4339 83.0581 13.008 82.3759 13.3975C81.6835 13.7768 80.8383 13.9715 79.8405 13.9715V14.0023ZM89.7582 14.0023C88.3428 14.0023 87.2024 13.5308 86.3165 12.5979C85.4408 11.6549 84.9928 10.4556 84.9928 8.9795C84.9928 7.50342 85.4306 6.3246 86.3063 5.38155C87.182 4.4385 88.3123 3.95672 89.6971 3.95672C91.0819 3.95672 92.1205 4.39749 92.9555 5.28929C93.8006 6.18109 94.2181 7.34966 94.2181 8.78474C94.2181 8.91799 94.2181 9.03075 94.1977 9.11276C94.1977 9.19476 94.1773 9.30752 94.157 9.46128H86.0416V7.89294H92.2223C92.151 7.24715 91.8965 6.70387 91.4484 6.27335C91.0106 5.84282 90.42 5.62756 89.6767 5.62756C88.8723 5.62756 88.2104 5.92483 87.7115 6.50911C87.2126 7.10364 86.958 7.90319 86.958 8.90774C86.958 9.9123 87.2431 10.7836 87.8031 11.4089C88.3632 12.0239 89.0759 12.3314 89.9516 12.3314C90.5218 12.3314 91.0208 12.2084 91.4484 11.9624C91.8761 11.7062 92.2732 11.3064 92.6296 10.7528L94.0042 11.6549C93.5562 12.4339 92.986 13.008 92.3038 13.3975C91.6114 13.7768 90.7662 13.9715 89.7683 13.9715L89.7582 14.0023ZM95.165 17.6822V4.26424H97.0692V6.11959L96.6109 5.58656H97.1201C97.4052 5.10478 97.8328 4.71526 98.4031 4.418C98.9733 4.12073 99.6046 3.96697 100.287 3.96697C101.56 3.96697 102.619 4.42825 103.454 5.3508C104.299 6.27335 104.726 7.48292 104.726 8.9795C104.726 10.4761 104.309 11.6446 103.464 12.5979C102.619 13.541 101.56 14.0228 100.277 14.0228C99.6148 14.0228 99.0038 13.8895 98.4438 13.6128C97.8838 13.3462 97.4765 12.9772 97.2117 12.5262H97.1608V17.7027H95.165V17.6822ZM99.9304 12.2494C100.735 12.2494 101.407 11.9419 101.947 11.3269C102.486 10.7118 102.761 9.92255 102.761 8.96925C102.761 8.01595 102.486 7.20615 101.936 6.61162C101.397 6.00683 100.725 5.70957 99.9304 5.70957C99.1362 5.70957 98.4743 6.00683 97.9143 6.61162C97.3644 7.2164 97.0895 8.0057 97.0895 8.96925C97.0895 9.9328 97.3644 10.7016 97.9143 11.3269C98.4642 11.9419 99.1362 12.2494 99.9304 12.2494ZM105.948 13.6948V0.492027H108.616L112.689 10.8759H112.75L116.803 0.492027H119.481V13.705H117.515V5.95558L117.577 3.5877H117.526L113.514 13.705H111.915L107.903 3.5877H107.852L107.913 5.95558V13.705H105.948V13.6948ZM121.415 13.6948V4.26424H123.401V13.705H121.415V13.6948ZM122.413 2.46014C122.067 2.46014 121.782 2.33713 121.538 2.10137C121.293 1.85535 121.171 1.55809 121.171 1.21982C121.171 0.881549 121.293 0.574032 121.538 0.348519C121.782 0.112756 122.077 0 122.413 0C122.749 0 123.065 0.112756 123.289 0.348519C123.523 0.584282 123.635 0.871299 123.635 1.21982C123.635 1.56834 123.523 1.85535 123.289 2.10137C123.055 2.33713 122.759 2.46014 122.413 2.46014ZM125.05 13.6948V4.26424H126.955V5.96583L126.7 5.64806H127.016C127.301 5.14579 127.718 4.74601 128.288 4.42825C128.859 4.11048 129.459 3.95672 130.07 3.95672C131.15 3.95672 131.995 4.28474 132.596 4.93052C133.207 5.57631 133.512 6.45786 133.512 7.58542V13.705H131.516V7.97494C131.516 7.22665 131.333 6.66287 130.977 6.27335C130.62 5.88383 130.101 5.68907 129.398 5.68907C128.696 5.68907 128.177 5.95558 127.718 6.47836C127.26 7.00114 127.036 7.64692 127.036 8.38496V13.6948H125.04H125.05ZM138.888 14.0023C137.616 14.0023 136.557 13.541 135.712 12.6082C134.877 11.6754 134.459 10.4658 134.459 8.9795C134.459 7.49317 134.887 6.3041 135.732 5.3713C136.587 4.4385 137.656 3.96697 138.939 3.96697C139.591 3.96697 140.182 4.11048 140.721 4.40774C141.271 4.69476 141.689 5.07403 141.964 5.55581H142.025V0.492027H144V13.705H142.096V12.0342L142.31 12.4032H142.045C141.75 12.885 141.322 13.2847 140.752 13.5718C140.182 13.8588 139.56 14.0023 138.888 14.0023ZM139.245 12.2699C140.049 12.2699 140.721 11.9624 141.261 11.3474C141.811 10.7221 142.086 9.9328 142.086 8.9795C142.086 8.0262 141.811 7.2369 141.251 6.63212C140.701 6.02733 140.029 5.73007 139.245 5.73007C138.461 5.73007 137.789 6.02733 137.229 6.63212C136.679 7.2369 136.404 8.01594 136.404 8.98975C136.404 9.96355 136.679 10.7323 137.219 11.3474C137.768 11.9624 138.44 12.2699 139.245 12.2699Z" fill="white"/>
</svg>
